<svg id="Layer_1" enable-background="new 0 0 512.077 512.077" height="512" viewBox="0 0 512.077 512.077" width="512" xmlns="http://www.w3.org/2000/svg"><g><g><g><path d="m384.239 501.913c-9.953 0-19.904-3.166-28.582-9.497l-99.619-72.67-99.618 72.671c-17.329 12.642-39.74 12.664-57.092.054-17.353-12.607-24.258-33.927-17.59-54.314l38.33-117.2-99.898-72.288c-17.377-12.573-24.323-33.879-17.695-54.279 6.618-20.368 24.715-33.514 46.121-33.514h.1l123.309.237 37.878-117.345c6.589-20.413 24.707-33.603 46.156-33.603 21.45 0 39.567 13.19 46.156 33.603l37.878 117.345 123.309-.237h.1c21.407 0 39.502 13.145 46.12 33.514 6.628 20.4-.318 41.707-17.694 54.28l-99.897 72.287 38.33 117.199c6.668 20.387-.237 41.707-17.59 54.315-8.664 6.295-18.59 9.441-28.512 9.442zm7.68-180.878c0 .001 0 .001 0 0zm-271.76 0c0 .001 0 .001 0 0zm51.966-159.932c-.001 0-.001.001 0 0-.001 0 0 0 0 0z" fill="#ff7038"/></g></g><path d="m509.602 194.389c-6.618-20.369-24.713-33.514-46.12-33.514-.033 0-.067 0-.1 0l-123.309.237-37.878-117.344c-6.578-20.38-24.648-33.559-46.053-33.601v409.655l99.515 72.594c8.678 6.331 18.629 9.497 28.582 9.497 9.922 0 19.847-3.147 28.51-9.441 17.354-12.608 24.258-33.928 17.59-54.315l-38.33-117.199 99.897-72.287c17.378-12.575 24.324-33.881 17.696-54.282z" fill="#ff1f3d"/><path d="m381.727 229.96c-1.681-8.111-9.62-13.33-17.731-11.645l-92.957 19.261v-98.573c0-8.284-6.716-15-15-15s-15 6.716-15 15v98.009l-84.436-20.105c-8.061-1.919-16.147 3.059-18.066 11.117-1.919 8.059 3.059 16.148 11.117 18.067l82.196 19.571-53.93 82.821c-4.521 6.942-2.558 16.234 4.385 20.755 2.527 1.646 5.365 2.432 8.171 2.432 4.903 0 9.709-2.401 12.584-6.816l53.598-82.311 59.76 83.044c2.932 4.073 7.525 6.24 12.188 6.239 3.034 0 6.098-.918 8.749-2.826 6.724-4.839 8.252-14.213 3.414-20.937l-59.053-82.061 88.368-18.31c8.11-1.681 13.323-9.62 11.643-17.732z" fill="#ff936b"/><path d="m381.727 229.96c-1.681-8.111-9.62-13.33-17.731-11.645l-92.957 19.261v-98.573c0-8.249-6.661-14.938-14.896-14.995v159.324l.515-.79 59.76 83.044c2.932 4.073 7.525 6.24 12.188 6.239 3.034 0 6.098-.918 8.749-2.826 6.724-4.839 8.252-14.213 3.414-20.937l-59.053-82.061 88.368-18.31c8.11-1.68 13.323-9.619 11.643-17.731z" fill="#ff6c6c"/></g></svg>