<?xml version="1.0" encoding="iso-8859-1"?>
<!-- Generator: Adobe Illustrator 19.0.0, SVG Export Plug-In . SVG Version: 6.00 Build 0)  -->
<svg version="1.1" id="Capa_1" xmlns="http://www.w3.org/2000/svg" xmlns:xlink="http://www.w3.org/1999/xlink" x="0px" y="0px"
	 viewBox="0 0 512.003 512.003" style="enable-background:new 0 0 512.003 512.003;" xml:space="preserve">
<path style="fill:#303C42;" d="M305.138,256.484c25.879-23.721,62.112-58.999,97.354-93.327c40.344-39.302,78.458-76.417,95.729-91
	c8.76-7.385,13.781-18.24,13.781-29.781c0-14.438-7.51-27.24-20.094-34.24c-12.521-6.958-27.26-6.615-39.438,0.948
	c-39.313,24.385-196.469,137.25-196.469,161.583c0,7.178-0.293,15.621-2.85,25.203c-11.751-20.152-18.483-38.615-18.483-46.536
	c0-15.177-51.573-64.615-153.292-146.958c-4.219-3.427-10.385-3.115-14.25,0.75l-64,64c-3.865,3.854-4.188,10.01-0.75,14.25
	c82.344,101.719,131.781,153.292,146.958,153.292c9.056,0,31.823,8.76,55.227,23.852C157.266,300.56,60.87,381.466,19.388,416.147
	C7.066,426.449,0.003,441.605,0.003,457.73c0,29.927,24.344,54.271,54.271,54.271c16.115,0,31.281-7.073,41.583-19.406
	c35.645-42.613,119.007-141.934,160.151-187.993c42.456,47.553,130.417,152.456,160.172,188.035
	c10.292,12.313,25.448,19.365,41.552,19.365c29.927,0,54.271-24.344,54.271-54.271c0-16.104-7.052-31.26-19.365-41.563
	C457.193,386.532,352.943,299.119,305.138,256.484z"/>
<g>
	<path style="fill:#E6E6E6;" d="M277.336,172.543c11.219-17.521,121.354-104.99,186.385-145.333
		c5.5-3.385,12.167-3.573,17.813-0.438c5.719,3.188,9.135,9.021,9.135,15.604c0,5.24-2.26,10.146-6.208,13.479
		c-17.854,15.073-56.229,52.448-96.854,92.021c-35.809,34.887-72.602,70.699-98.298,94.167c-1.604-1.518-3.255-3.074-4.431-4.25
		c-6.327-6.327-12.008-13.227-17.279-20.24C276.351,199.191,277.309,183.556,277.336,172.543z"/>
	<path style="fill:#E6E6E6;" d="M79.493,478.907c-6.24,7.479-15.438,11.76-25.219,11.76c-18.167,0-32.938-14.771-32.938-32.938
		c0-9.792,4.281-18.979,11.74-25.208c42.625-35.651,143.104-119.991,189.254-161.26c5.341,4.263,10.582,8.732,15.465,13.615
		c1.036,1.036,2.443,2.535,3.746,3.905C200.651,334.428,115.631,435.712,79.493,478.907z"/>
	<path style="fill:#E6E6E6;" d="M457.732,490.668c-9.781,0-18.958-4.271-25.188-11.719
		c-45.26-54.125-153.365-182.854-179.667-209.156c-32.146-32.146-80.802-56.208-101.417-56.208c-0.104,0-0.219,0.01-0.323,0.01
		c-12.563-4.885-72.802-72.781-126.125-138.188l6.99-6.99l99.125,99.125c2.083,2.083,4.813,3.125,7.542,3.125
		c2.729,0,5.458-1.042,7.542-3.125c4.167-4.167,4.167-10.917,0-15.083L47.086,53.334l6.25-6.25l99.125,99.125
		c2.083,2.083,4.813,3.125,7.542,3.125c2.729,0,5.458-1.042,7.542-3.125c4.167-4.167,4.167-10.917,0-15.083L68.42,32.001l6.99-6.99
		c65.406,53.323,133.292,113.49,137.927,124.323c0,22.229,24.146,71.229,56.458,103.542
		c26.302,26.302,155.031,134.406,209.156,179.656c7.448,6.24,11.719,15.417,11.719,25.198
		C490.67,475.897,475.899,490.668,457.732,490.668z"/>
</g>
<path style="opacity:0.1;enable-background:new    ;" d="M222.33,271.261c-3.206,2.867-6.725,5.983-10.418,9.234
	c4.033,3.434,7.965,6.962,11.633,10.63c2.16,2.16,5.044,5.228,8.227,8.671c3.451-3.917,6.76-7.656,9.77-11.016
	c-1.303-1.37-2.71-2.868-3.746-3.905C232.912,279.993,227.671,275.524,222.33,271.261z"/>
<path style="opacity:0.1;enable-background:new    ;" d="M294.684,227.867c-7.694-7.694-14.879-16.366-21.431-25.366
	c-1.392,4.789-3.134,9.767-5.654,15.052c5.271,7.013,10.952,13.913,17.279,20.24c1.176,1.176,2.827,2.732,4.431,4.25
	c3.102-2.833,6.816-6.348,10.22-9.517C297.736,230.83,295.993,229.175,294.684,227.867z"/>
<linearGradient id="SVGID_1_" gradientUnits="userSpaceOnUse" x1="-47.8359" y1="640.6647" x2="-20.9863" y2="628.1444" gradientTransform="matrix(21.3333 0 0 -21.3333 996.3024 13791.7012)">
	<stop  offset="0" style="stop-color:#FFFFFF;stop-opacity:0.2"/>
	<stop  offset="1" style="stop-color:#FFFFFF;stop-opacity:0"/>
</linearGradient>
<path style="fill:url(#SVGID_1_);" d="M305.138,256.484c25.879-23.721,62.112-58.999,97.354-93.327
	c40.344-39.302,78.458-76.417,95.729-91c8.76-7.385,13.781-18.24,13.781-29.781c0-14.438-7.51-27.24-20.094-34.24
	c-12.521-6.958-27.26-6.615-39.438,0.948c-39.313,24.385-196.469,137.25-196.469,161.583c0,7.178-0.293,15.621-2.85,25.203
	c-11.751-20.152-18.483-38.615-18.483-46.536c0-15.177-51.573-64.615-153.292-146.958c-4.219-3.427-10.385-3.115-14.25,0.75l-64,64
	c-3.865,3.854-4.188,10.01-0.75,14.25c82.344,101.719,131.781,153.292,146.958,153.292c9.056,0,31.823,8.76,55.227,23.852
	C157.266,300.56,60.87,381.466,19.388,416.147C7.066,426.449,0.003,441.605,0.003,457.73c0,29.927,24.344,54.271,54.271,54.271
	c16.115,0,31.281-7.073,41.583-19.406c35.645-42.613,119.007-141.934,160.151-187.993
	c42.456,47.553,130.417,152.456,160.172,188.035c10.292,12.313,25.448,19.365,41.552,19.365c29.927,0,54.271-24.344,54.271-54.271
	c0-16.104-7.052-31.26-19.365-41.563C457.193,386.532,352.943,299.119,305.138,256.484z"/>
<g>
</g>
<g>
</g>
<g>
</g>
<g>
</g>
<g>
</g>
<g>
</g>
<g>
</g>
<g>
</g>
<g>
</g>
<g>
</g>
<g>
</g>
<g>
</g>
<g>
</g>
<g>
</g>
<g>
</g>
</svg>
