<?xml version="1.0" encoding="iso-8859-1"?>
<!-- Generator: Adobe Illustrator 19.0.0, SVG Export Plug-In . SVG Version: 6.00 Build 0)  -->
<svg version="1.1" id="Capa_1" xmlns="http://www.w3.org/2000/svg" xmlns:xlink="http://www.w3.org/1999/xlink" x="0px" y="0px"
	 viewBox="0 0 511.999 511.999" style="enable-background:new 0 0 511.999 511.999;" xml:space="preserve">
<rect x="237.011" y="377.62" style="fill:#E3E6E8;" width="37.972" height="105.93"/>
<path style="fill:#CCCED0;" d="M377.3,348.694c0,31.956-54.307,57.862-121.299,57.862s-121.299-25.906-121.299-57.862H377.3z"/>
<path style="fill:#B3B5B7;" d="M164.702,348.694h-30c0,31.957,54.307,57.862,121.299,57.862c5.079,0,10.084-0.151,15-0.44
	C211.088,402.591,164.702,378.228,164.702,348.694z"/>
<path style="fill:#EC8094;" d="M338.625,41.993c0,0,6.329-34.493,27.424-34.493s27.424,34.493,27.424,34.493l-27.424,16.839
	L338.625,41.993z"/>
<path style="fill:#E7627B;" d="M358.625,41.993c0,0,4.262-23.179,17.424-31.53c-2.89-1.833-6.202-2.963-10-2.963
	c-21.095,0-27.424,34.493-27.424,34.493l27.424,16.839l10-6.141L358.625,41.993z"/>
<path style="fill:#EC8094;" d="M173.377,41.993c0,0-6.329-34.493-27.424-34.493s-27.424,34.493-27.424,34.493l27.424,16.839
	L173.377,41.993z"/>
<path style="fill:#E7627B;" d="M138.529,41.993c0,0,4.262-23.179,17.424-31.53c-2.89-1.833-6.202-2.963-10-2.963
	c-21.095,0-27.424,34.493-27.424,34.493l27.424,16.839l10-6.141L138.529,41.993z"/>
<path style="fill:#EC8094;" d="M228.577,41.993c0,0,6.329-34.493,27.424-34.493s27.424,34.493,27.424,34.493l-27.424,16.839
	L228.577,41.993z"/>
<path style="fill:#E7627B;" d="M248.577,41.993c0,0,4.262-23.179,17.424-31.53c-2.89-1.833-6.202-2.963-10-2.963
	c-21.095,0-27.424,34.493-27.424,34.493l27.424,16.839l10-6.141L248.577,41.993z"/>
<g>
	<polygon style="fill:#FFADCC;" points="88.609,170.759 88.609,91.752 105.169,69.244 397.341,69.244 423.394,91.752 
		423.394,170.759 256.001,203.689 	"/>
	<polygon style="fill:#FFADCC;" points="458.277,341.16 458.277,230.888 434.258,203.689 83.018,203.689 53.725,230.888 
		53.725,341.16 	"/>
</g>
<path style="fill:#FF87B4;" d="M397.341,69.244H135.169h-30l-16.56,22.508v26.043v52.963l167.392,32.931l15-2.951l-152.393-29.979
	v-54.718c8.104,3.575,16.922,5.454,25.797,5.454c10.65,0,21.221-2.695,30.57-7.795c2.027-1.106,4.319-1.69,6.628-1.69
	s4.601,0.584,6.628,1.69c9.35,5.1,19.92,7.795,30.57,7.795s21.221-2.695,30.57-7.795c2.027-1.106,4.319-1.69,6.628-1.69
	c2.309,0,4.601,0.584,6.628,1.69c9.349,5.1,19.92,7.795,30.57,7.795s21.221-2.695,30.57-7.795c2.027-1.106,4.319-1.69,6.628-1.69
	s4.601,0.584,6.628,1.69c9.35,5.1,19.92,7.795,30.57,7.795s21.221-2.695,30.57-7.795c2.027-1.106,4.319-1.69,6.628-1.69
	s4.601,0.584,6.628,1.69c3.741,2.041,7.803,3.412,11.971,4.096V91.752L397.341,69.244z"/>
<path style="fill:#FAE7CA;" d="M403.275,41.993H108.727c-21.383,0-38.718,17.334-38.718,38.718l0,0
	c0,9.547,10.218,15.612,18.599,11.041c11.593-6.324,25.605-6.324,37.198,0s25.605,6.324,37.198,0s25.605-6.324,37.198,0
	s25.605,6.324,37.198,0s25.605-6.324,37.198,0s25.605,6.324,37.198,0s25.605-6.324,37.198,0s25.605,6.324,37.198,0
	s25.605-6.324,37.198,0c8.381,4.571,18.599-1.495,18.599-11.041l0,0C441.993,59.328,424.659,41.993,403.275,41.993z"/>
<path style="fill:#E2D1B7;" d="M100.009,80.711L100.009,80.711c0-21.383,17.335-38.718,38.718-38.718h-30
	c-21.383,0-38.718,17.334-38.718,38.718l0,0c0,9.547,10.218,15.613,18.599,11.042c4.194-2.288,8.707-3.736,13.305-4.368
	C100.721,85.486,100.009,83.221,100.009,80.711z"/>
<path style="fill:#FF87B4;" d="M434.258,203.689h-321.24h-30l-29.293,27.199v26.199v84.074h30V251.5
	c1.022,0.373,2.021,0.813,2.979,1.335c10.535,5.747,22.446,8.784,34.446,8.784s23.912-3.037,34.446-8.784
	c3.212-1.752,6.845-2.678,10.504-2.678s7.292,0.926,10.504,2.679c10.535,5.746,22.446,8.783,34.446,8.783s23.911-3.037,34.446-8.784
	c3.212-1.752,6.845-2.678,10.504-2.678c3.659,0,7.292,0.926,10.504,2.679c10.535,5.746,22.446,8.783,34.446,8.783
	s23.912-3.037,34.446-8.784c3.212-1.752,6.845-2.678,10.504-2.678s7.292,0.926,10.504,2.678c10.535,5.747,22.446,8.784,34.446,8.784
	s23.912-3.037,34.446-8.783c3.212-1.752,6.845-2.679,10.504-2.679s7.292,0.926,10.504,2.678c3.754,2.048,7.806,3.477,11.971,4.251
	v-26.199L434.258,203.689z"/>
<path style="fill:#FAE7CA;" d="M433.966,170.759H78.036c-25.839,0-46.786,20.947-46.786,46.786l0,0
	c0,11.536,12.348,18.866,22.475,13.342c14.009-7.641,30.941-7.641,44.95,0s30.941,7.641,44.95,0s30.941-7.641,44.95,0
	s30.941,7.641,44.95,0s30.941-7.641,44.95,0s30.941,7.641,44.95,0s30.941-7.641,44.95,0s30.941,7.641,44.95,0s30.941-7.641,44.95,0
	c10.127,5.524,22.475-1.806,22.475-13.342l0,0C480.752,191.706,459.806,170.759,433.966,170.759z"/>
<path style="fill:#E2D1B7;" d="M61.25,217.546L61.25,217.546c0-25.839,20.947-46.787,46.786-46.787h-30
	c-25.839,0-46.786,20.947-46.786,46.787l0,0c0,11.536,12.348,18.866,22.475,13.342c3.382-1.845,6.937-3.234,10.578-4.188
	C62.409,224.206,61.25,221.074,61.25,217.546z"/>
<path style="fill:#E3E6E8;" d="M458.819,323.53H53.184c-23.135,0-41.89,18.755-41.89,41.89l0,0h489.415l0,0
	C500.709,342.285,481.954,323.53,458.819,323.53z"/>
<g>
	<path style="fill:#CCCED0;" d="M83.184,323.53h-30c-23.135,0-41.89,18.755-41.89,41.891l0,0h30l0,0
		C41.294,342.285,60.049,323.53,83.184,323.53z"/>
	<path style="fill:#CCCED0;" d="M300.603,462.61H211.4c-23.135,0-41.89,18.755-41.89,41.89l0,0h172.983l0,0
		C342.493,481.365,323.738,462.61,300.603,462.61z"/>
</g>
<path style="fill:#B3B5B7;" d="M241.4,462.61h-30c-23.135,0-41.89,18.755-41.89,41.89l0,0h30l0,0
	C199.51,481.365,218.265,462.61,241.4,462.61z"/>
<path d="M180.409,259.708c-4.142,0-7.5,3.358-7.5,7.5v13.681c0,4.142,3.358,7.5,7.5,7.5s7.5-3.358,7.5-7.5v-13.681
	C187.909,263.066,184.551,259.708,180.409,259.708z"/>
<path d="M331.593,259.708c-4.142,0-7.5,3.358-7.5,7.5v13.681c0,4.142,3.358,7.5,7.5,7.5s7.5-3.358,7.5-7.5v-13.681
	C339.093,263.066,335.735,259.708,331.593,259.708z"/>
<path d="M283.86,275.21c-3.119-2.726-7.856-2.407-10.583,0.711c-4.209,4.816-10.506,7.578-17.276,7.578
	c-6.77,0-13.067-2.762-17.276-7.578c-2.726-3.119-7.464-3.437-10.583-0.711s-3.438,7.464-0.711,10.583
	c7.058,8.075,17.472,12.706,28.57,12.706c11.098,0,21.511-4.631,28.57-12.706C287.297,282.675,286.979,277.937,283.86,275.21z"/>
<path d="M11.293,372.92h124.678c15.659,20.594,51.048,35.393,93.543,39.782v42.407h-18.115c-27.234,0-49.39,22.155-49.391,49.388
	c0,4.072,3.44,7.502,7.5,7.502h172.983c4.142,0,7.5-3.358,7.5-7.5c0-27.234-22.156-49.39-49.391-49.39h-18.115v-42.407
	c42.495-4.389,77.885-19.188,93.543-39.782h124.678c4.142,0,7.5-3.358,7.5-7.5c0-24.872-18.482-45.498-42.432-48.891v-76.263
	c3.92-0.038,7.828-1.104,11.364-3.204c6.957-4.13,11.111-11.426,11.111-19.517c0-29.934-24.353-54.287-54.286-54.287h-3.072v-62.505
	c3.034-0.227,6.029-1.151,8.771-2.779c6.154-3.653,9.828-10.107,9.828-17.264c0-25.484-20.733-46.218-46.218-46.218h-3.925
	C396.074,23.103,386.863,0,366.049,0s-30.025,23.103-33.302,34.493h-43.445C286.026,23.103,276.814,0,256.001,0
	S225.976,23.103,222.7,34.493h-43.445C175.978,23.103,166.766,0,145.953,0s-30.024,23.103-33.301,34.493h-3.925
	c-25.485,0-46.218,20.733-46.218,46.218c0,7.157,3.674,13.611,9.828,17.264c2.743,1.628,5.737,2.553,8.771,2.78v62.504h-3.072
	c-29.933,0-54.286,24.353-54.286,54.287c0,8.091,4.154,15.387,11.111,19.517c3.536,2.1,7.444,3.166,11.364,3.204v76.263
	c-23.949,3.394-42.432,24.02-42.432,48.891C3.793,369.563,7.151,372.92,11.293,372.92z M351.284,27.798
	C355.496,19.306,360.463,15,366.049,15c5.585,0,10.553,4.306,14.765,12.798c1.13,2.279,2.057,4.583,2.8,6.695h-35.131
	C349.227,32.381,350.153,30.077,351.284,27.798z M241.236,27.798C245.448,19.306,250.416,15,256.001,15
	c5.585,0,10.553,4.306,14.765,12.798c1.131,2.279,2.057,4.583,2.801,6.695h-35.131C239.179,32.381,240.105,30.077,241.236,27.798z
	 M145.953,15c5.586,0,10.554,4.306,14.766,12.798c1.13,2.279,2.057,4.583,2.8,6.695h-35.078C131.374,26.176,136.987,15,145.953,15z
	 M334.168,497H177.834c3.432-15.368,17.179-26.89,33.566-26.89h89.202C316.99,470.11,330.737,481.632,334.168,497z M267.487,413.801
	v41.309h-22.972v-41.309c0.065,0.003,0.13,0.004,0.195,0.007c3.76,0.17,7.526,0.248,11.291,0.248c3.764,0,7.53-0.087,11.291-0.248
	C267.356,413.805,267.421,413.804,267.487,413.801z M274.353,398.369c-12.209,0.915-24.496,0.914-36.704,0
	c-33.901-2.542-63.653-11.998-80.709-25.448h198.122C338.006,386.371,308.254,395.827,274.353,398.369z M77.509,80.711
	c0-17.213,14.004-31.218,31.218-31.218h294.548c17.214,0,31.218,14.004,31.218,31.218c0,3.788-4.199,6.262-7.508,4.457
	c-13.73-7.49-30.648-7.492-44.381,0c-9.22,5.03-20.797,5.03-30.016,0c-13.637-7.441-30.61-7.512-44.381,0
	c-8.931,4.872-20.976,4.931-30.016,0c-13.895-7.579-30.486-7.579-44.381,0c-9.211,5.024-20.81,5.02-30.016,0
	c-13.026-7.105-28.423-7.549-41.745-1.332c-10.583,4.939-21.922,7.185-32.652,1.332c-13.895-7.579-30.486-7.579-44.383,0.001
	C81.655,87,77.509,84.5,77.509,80.711z M42.518,224.165c-1.133-0.672-3.768-2.664-3.768-6.619c0-21.663,17.624-39.287,39.286-39.287
	c0,0,50.597,0,50.669,0c4.009,0,7.5-3.487,7.5-7.5c0-4.142-3.358-7.5-7.5-7.5H96.108V96.545c4.733-1.803,9.882-2.43,14.912-1.817
	c3.776,0.46,7.719,1.725,11.127,3.574c0.022,0.012,0.046,0.023,0.068,0.035c13.614,7.399,30.623,7.505,44.381,0
	c9.397-5.126,20.618-5.126,30.016,0.001c13.702,7.473,30.669,7.48,44.381-0.001c9.396-5.126,20.618-5.126,30.015,0
	c13.715,7.481,30.666,7.48,44.381-0.001c15.684-8.555,27.01,1.156,42.14,4.547c10.932,2.45,22.263,0.619,32.256-4.547
	c0.015-0.008,0.031-0.015,0.046-0.023c7.93-4.348,17.617-4.982,26.061-1.768v66.714H158.706c-4.142,0-7.5,3.358-7.5,7.5
	c0,3.982,3.529,7.5,7.5,7.5h275.26c21.663,0,39.286,17.624,39.286,39.287c0,5.769-6.339,9.509-11.384,6.757
	c-2.112-1.152-4.279-2.148-6.483-3.002c-14.831-5.745-31.44-4.749-45.651,3.003c-17.642,9.623-30.475,1.326-47.24-4.069
	c-14.072-4.528-29.697-3.001-42.66,4.068c-14.909,8.134-28.929,3.185-43.535-2.711c-15.001-6.055-32.16-5.031-46.365,2.711
	c-16.888,9.214-30.776,1.23-47.24-4.068c-14.07-4.527-29.699-3-42.661,4.068c-14.803,8.076-28.549,3.507-43.075-2.514
	c-11.952-4.952-25.143-5.485-37.352-1.555c-0.076,0.024-0.15,0.056-0.227,0.081c-3.162,1.033-6.258,2.358-9.247,3.988
	C46.662,226.197,43.651,224.837,42.518,224.165z M53.184,331.03h0.542h336.98c4.142,0,7.5-3.358,7.5-7.5s-3.358-7.5-7.5-7.5H61.225
	v-80.406c0.114-0.047,0.226-0.1,0.34-0.146c10.816-4.345,23.285-3.596,33.518,1.995c16.322,8.903,35.811,8.903,52.133,0
	c11.689-6.376,26.076-6.379,37.767,0c16.133,8.802,35.999,8.801,52.133,0c11.824-6.45,25.943-6.45,37.767,0
	c16.322,8.903,35.812,8.903,52.133,0c11.824-6.45,25.943-6.45,37.767,0c15.864,8.653,36.256,8.656,52.133,0
	c10.278-5.603,23.037-6.307,33.859-1.849v80.406h-30.071c-4.142,0-7.5,3.358-7.5,7.5s3.358,7.5,7.5,7.5h37.571h0.542
	c16.388,0,30.135,11.522,33.566,26.891H19.617C23.049,342.552,36.796,331.03,53.184,331.03z"/>
<g>
</g>
<g>
</g>
<g>
</g>
<g>
</g>
<g>
</g>
<g>
</g>
<g>
</g>
<g>
</g>
<g>
</g>
<g>
</g>
<g>
</g>
<g>
</g>
<g>
</g>
<g>
</g>
<g>
</g>
</svg>
